<svg xmlns="http://www.w3.org/2000/svg" viewBox="0 0 850 1020">
  <g id="地区">
    <path name="淮北市" d="M240,30 h75 v50 h-75 Z" />
    <path name="亳州市" d="M40,60 h75 v50 h-75 Z" />
    <path name="宿州市" d="M300,95 h75 v50 h-75 Z" />
    <path name="蚌埠市" d="M380,240 h75 v50 h-75 Z" />
    <path name="阜阳市" d="M50,255 h75 v50 h-75 Z" />
    <path name="淮南市" d="M310,300 h75 v50 h-75 Z" />
    <path name="滁州市" d="M580,370 h75 v50 h-75 Z" />
    <path name="合肥市" d="M360,460 h75 v50 h-75 Z" />
    <path name="六安市" d="M170,485 h75 v50 h-75 Z" />
    <path name="马鞍山市" d="M630,500 h75 v50 h-75 Z" />
    <path name="芜湖市" d="M610,575 h75 v50 h-75 Z" />
    <path name="宣城市" d="M680,660 h75 v50 h-75 Z" />
    <path name="铜陵市" d="M490,660 h75 v50 h-75 Z" />
    <path name="池州市" d="M420,720 h75 v50 h-75 Z" />
    <path name="安庆市" d="M310,750 h75 v50 h-75 Z" />
    <path name="黄山市" d="M580,920 h75 v50 h-75 Z" />
  </g>
  <g id="地名" font-size="28" font-family="jldys">
    <text x="248" y="68">淮北</text>
    <text x="48" y="98">亳州</text>
    <text x="308" y="133">宿州</text>
    <text x="388" y="278">蚌埠</text>
    <text x="58" y="293">阜阳</text>
    <text x="318" y="338">淮南</text>
    <text x="588" y="408">滁州</text>
    <text x="378" y="498">合肥</text>
    <text x="178" y="523">六安</text>
    <text x="638" y="538">马鞍山</text>
    <text x="618" y="613">芜湖</text>
    <text x="688" y="698">宣城</text>
    <text x="498" y="698">铜陵</text>
    <text x="428" y="758">池州</text>
    <text x="318" y="788">安庆</text>
    <text x="588" y="958">黄山</text>
  </g>
</svg>
